Coordinates
version=1
nRows=8
nColumns=40
inDegrees=yes

Units are S.I. units (second, meters, Newtons, ...)
Angles are in degrees.

endheader
time	pelvis_tilt	pelvis_list	pelvis_rotation	pelvis_tx	pelvis_ty	pelvis_tz	hip_flexion_r	hip_adduction_r	hip_rotation_r	knee_angle_r	knee_angle_r_beta	ankle_angle_r	subtalar_angle_r	mtp_angle_r	hip_flexion_l	hip_adduction_l	hip_rotation_l	knee_angle_l	knee_angle_l_beta	ankle_angle_l	subtalar_angle_l	mtp_angle_l	lumbar_extension	lumbar_bending	lumbar_rotation	arm_flex_r	arm_add_r	arm_rot_r	elbow_flex_r	pro_sup_r	wrist_flex_r	wrist_dev_r	arm_flex_l	arm_add_l	arm_rot_l	elbow_flex_l	pro_sup_l	wrist_flex_l	wrist_dev_l
      1.06000000	     -0.68876499	     -1.31709996	      1.45943252	     -0.17573142	      0.89574159	      1.13370684	      2.42071369	      1.73629943	    -14.47449944	    -21.42500064	     -0.37393680	     12.25304985	      0.04234325	     -1.39046603	     27.66958944	      6.73351507	      8.48687860	    -63.29587912	     -1.10472149	      5.58611243	     18.80524766	     20.07318144	     -4.48866266	      3.42905567	      0.46022072	      1.95219810	     -9.98375093	    -19.84197223	     32.49063558	     89.95437384	      0.00000000	      0.00000000	     -5.76969955	      7.51456235	     13.74413707	     29.85037505	     89.95437384	      0.00000000	      0.00000000
      1.07000000	     -0.73312124	     -1.34894236	      1.27612533	     -0.16650408	      0.89544770	      1.13424965	      1.56136778	      1.85739810	    -14.36264978	    -20.91554400	     -0.36504511	     12.43908850	      0.29638388	     -1.48981669	     28.36594313	      6.71150670	      8.75924843	    -61.31661049	     -1.07017674	      6.83958655	     18.87132186	     20.15450278	     -4.51222641	      3.40836578	      0.81614388	      2.25601863	    -10.16064995	    -19.78790128	     33.45437457	     89.95437384	      0.00000000	      0.00000000	     -5.79212920	      7.39306817	     13.92543622	     28.46961495	     89.95437384	      0.00000000	      0.00000000
      1.08000000	     -0.33899879	     -1.31394779	      1.01606286	     -0.15679736	      0.89567701	      1.13488847	      0.22863498	      1.86677687	    -14.31882656	    -20.53032436	     -0.35832176	     12.37648339	      0.73327669	     -1.70742726	     28.36075220	      6.80267355	      9.39190999	    -58.98688686	     -1.02951539	      7.69503806	     18.87145450	     20.86918565	     -5.02260362	      3.29457401	      1.13491973	      2.56074548	    -10.29662231	    -19.71854919	     34.59128975	     89.95437384	      0.00000000	      0.00000000	     -5.96472041	      7.28846897	     14.31071560	     27.44222655	     89.95437384	      0.00000000	      0.00000000
      1.09000000	     -0.66460860	     -1.60189605	      0.95649552	     -0.14758616	      0.89455213	      1.13541540	     -0.11219980	      2.19376459	    -14.56848125	    -20.49323426	     -0.35767441	     12.46758733	      0.74120105	     -1.74128695	     29.38865078	      7.12349728	      9.63502716	    -56.75688655	     -0.99059454	      8.11881008	     18.88338980	     20.71997803	     -4.70339793	      3.50782112	      1.12337957	      3.03945803	    -10.38998510	    -19.64740342	     35.27827840	     89.95437384	      0.00000000	      0.00000000	     -6.55206121	      7.28864355	     14.26490322	     26.98285184	     89.95437384	      0.00000000	      0.00000000
      1.10000000	     -0.69064017	     -1.47090902	      0.71462969	     -0.13847772	      0.89416508	      1.13555616	     -0.95784823	      2.08772031	    -14.23981207	    -20.03672825	     -0.34970688	     12.60034986	      1.14213081	     -1.90254174	     29.71378065	      6.79347518	      9.78725886	    -53.96218952	     -0.94181788	      8.90914618	     18.81551506	     20.90403254	     -4.79614841	      3.31856511	      1.53828452	      3.25253980	    -10.61635988	    -19.47644760	     36.29987933	     89.95437384	      0.00000000	      0.00000000	     -6.40619864	      7.18081576	     14.43648205	     25.56955499	     89.95437384	      0.00000000	      0.00000000
      1.11000000	     -1.03166703	     -1.81901483	      0.59178076	     -0.12935348	      0.89292898	      1.13601701	     -1.23646887	      2.44927195	    -14.51243931	    -20.04402070	     -0.34983416	     12.68233374	      1.14887276	     -1.94299527	     30.57412095	      7.19017892	     10.05429158	    -51.35052151	     -0.89623567	      9.07138676	     18.70044355	     20.77846256	     -4.48881682	      3.59695589	      1.62297880	      3.68531374	    -10.74200038	    -19.44491424	     36.99214625	     89.95437384	      0.00000000	      0.00000000	     -6.94556415	      7.15382518	     14.43965282	     25.21779421	     89.95437384	      0.00000000	      0.00000000
      1.12000000	     -1.05114242	     -1.60209632	      0.33472535	     -0.12011646	      0.89251208	      1.13603400	     -2.03083930	      2.19583918	    -14.22412500	    -19.74407543	     -0.34459912	     12.67530739	      1.56684675	     -2.11586419	     30.64838837	      6.75696362	     10.19979918	    -48.01801782	     -0.83807251	      8.88838952	     18.55125422	     20.82364712	     -4.60153049	      3.29902122	      2.03615697	      3.89780912	    -10.89455595	    -19.32208888	     37.88303426	     89.95437384	      0.00000000	      0.00000000	     -6.84541290	      7.09941714	     14.60295242	     24.06005672	     89.95437384	      0.00000000	      0.00000000
      1.13000000	     -0.95631376	     -1.47187511	      0.08598458	     -0.11057761	      0.89207472	      1.13602942	     -2.84502473	      1.92575826	    -14.51060160	    -19.71784337	     -0.34414129	     12.71622464	      2.16531353	     -2.54145560	     30.57755139	      6.53830288	     10.63100553	    -44.74225903	     -0.78089973	      8.49840184	     18.27271032	     20.64988325	     -4.80624877	      3.07146842	      2.29620967	      4.24820833	    -11.01416854	    -19.27703612	     38.62965680	     89.95437384	      0.00000000	      0.00000000	     -7.10519117	      7.05814260	     14.78149815	     23.52572961	     89.95437384	      0.00000000	      0.00000000
